<?xml version="1.0" encoding="utf-8"?>
<!-- Generator: Adobe Illustrator 28.2.0, SVG Export Plug-In . SVG Version: 6.00 Build 0)  -->
<svg version="1.1" id="Layer_1" xmlns="http://www.w3.org/2000/svg" xmlns:xlink="http://www.w3.org/1999/xlink" x="0px" y="0px"
	 viewBox="0 0 283.46 283.46" style="enable-background:new 0 0 283.46 283.46;" xml:space="preserve">
<style type="text/css">
	.st0{fill:#579241;}
	.st1{fill:#FFFFFF;}
</style>
<g id="XMLID_85_">
	<path class="st0" d="M283.46,42.52C283.46,19.13,264.33,0,240.94,0H42.52C19.13,0,0,19.13,0,42.52v198.42
		c0,23.39,19.13,42.52,42.52,42.52h198.42c23.39,0,42.52-19.13,42.52-42.52V42.52z"/>
</g>
<path id="XMLID_98_" class="st1" d="M72.87,270.39c0,0-7.06,3.92-4.01-0.96c3.05-4.88,12.81-18.91,12.81-18.91s-0.26-2.35,1.22-3.57
	c1.48-1.22,4.62-5.4,4.62-5.4l24.93-50.29c0,0,1.94-3.07,2-4.12c0.07-1.05,2-5.56,7.15-7.12c5.14-1.57,10.98-7.41,10.98-7.41
	s24.23-24.62,29.85-26.71c5.62-2.09,5.45-8.5,3.18-6.32c-2.27,2.18-9.06,7.15-15.16,10.2c-6.1,3.05-13.33,9.41-13.33,9.41
	s-7.58,4.18-12.46,4.53c-4.88,0.35-11.24-0.44-11.68-0.52c-0.44-0.09-0.52-4.44,1.66-6.45c2.18-2,5.49-3.57,6.1-7.06
	c0.61-3.49,3.75-10.37,5.93-11.42c2.18-1.05,4.4-10.41,14.21-16.82c4.84-3.92-14.38-1.31-14.38-1.31l-37.13,0.87
	c0,0-4.36,1.74-7.76,1.13c-3.4-0.61-6.54,2.27-6.54,2.27s-7.02,7.23-10.94,9.72c-3.92,2.48-15.3,10.72-17,12.94
	c-1.7,2.22-6.93,2.75-6.93,2.75l-15.43-0.92c0,0-0.92-2.22,1.83-1.96c2.75,0.26,9.8,1.44,11.11,0.52s14.64-7.32,17.26-10.33
	c2.61-3.01,9.54-6.01,13.2-10.33c3.66-4.31,6.93-9.54,11.37-10.33s21.57,0.52,25.62,0c4.05-0.52,16.21-2.09,17.78-2.88
	c1.57-0.78,9.54-1.57,10.72-1.57s15.69,0,15.69,0s9.8-8.98,12.42-12.81c2.61-3.83,11.68-12.2,13.94-12.38
	c2.27-0.17,2.92-2.92,2.92-2.92s-1.35-7.71-3.44-9.46c-0.28-4.47,3.83-2.18,3.83-2.18s2.16,2.81,3.07,3.2
	c0.92,0.39,1.76,0.33,1.37-0.92c-0.39-1.24-2.42-3.33-2.61-4.64c-0.2-1.31,1.63-3.92,3.33-1.57c1.7,2.35,0.46,4.05,0.46,4.05
	s-0.78,3.01,0.78,4.05c1.57,1.05,2.42,0.65,2.42-0.13c0-0.78-0.78-1.96,0-2.94c0.78-0.98,4.05-2.42,4.9-1.57
	c0.85,0.85,2.42-0.07,2.81-0.13c0.39-0.07,1.57,0.46,1.57,0.46s-0.85-47.32-4.38-52.55c4.38,0.52,4.38,7.45,4.38,7.45
	s2.42,41.57,2.29,44.32c0.01,2.27,0.74,3.27,2.14,2.79c1.39-0.48,8.58-14.95,38.52-24.36c1.96,1.57,0,2.29,0,2.29
	s-22.32,7.69-37.13,22.94c-1,1.53,2.92,8.06,2.92,8.06s3.92,8.98-6.1,10.46c-2.88,2.27-1.83,6.28,0.61,7.41
	c2.44,1.13,3.05,2,5.75,2.35c2.7,0.35,8.72,0.7,12.2,2.35c1.74-2.53,5.84-2.35,5.84-2.35l7.41-0.35l0.87-2.53l4.27,3.05
	c0,0,0.26,2.44-1.83,2.27s-4.1-0.96-5.75,0.09c-1.66,1.05-2.61,2.79-2.79,3.31c-0.17,0.52-1.05,3.22-7.67,1.57
	c-6.62-1.66-14.03-6.19-21.79-4.88c-7.76,1.31-6.75,7.36-5.71,17.69c1.05,10.33,1.7,24.19,0.92,27.06
	c5.88,7.19,12.81,13.33,12.81,13.33s3.4,2.35,5.36,6.14c1.96,3.79,5.03,7.19,6.54,8.3c7.6,6.53,2.27,9.33-1.9,3.66
	c-0.78-1.05-5.95-6.47-5.95-6.47s-4.18-7.71-16.08-18.56c-11.9-10.85-6.14-18.83-6.14-18.83s2.75-8.89,0.13-11.5
	c-2.61-2.61-5.36-0.13-5.36-0.13s-6.49,15.38-12.42,21.48c-5.93,6.1-11.68,12.72-16.21,14.99c-4.53,2.27-21.96,14.99-21.96,14.99
	l-5.06,4.71c0,0,1.39,3.66-2.27,5.93c-3.66,2.27-6.97,1.92-6.97,1.92s-23.49,49.59-26.89,53.77c-3.4,4.18-1.83,7.32-1.83,7.32
	s-2.09-0.65-3.14,0.65C83.72,253.61,72.87,270.39,72.87,270.39z"/>
</svg>
